<svg xmlns="http://www.w3.org/2000/svg" xml:space="preserve" id="WorldAutismAwarenessDay" x="0" y="0" enable-background="new 0 0 64 64" version="1.1" viewBox="0 0 64 64">
  <path d="M63.68,9.05c-0.37-0.59-1.02-0.98-1.77-0.98H2.1C0.95,8.07,0,9,0,10.17v45.32c0,2.35,1.93,4.28,4.29,4.28h55.42
			c1.03,0,1.99-0.37,2.73-0.98C63.39,58,64,56.81,64,55.49V10.17C64,9.75,63.88,9.38,63.68,9.05z M63.02,55.49
			c0,1.81-1.48,3.3-3.3,3.3H4.29c-1.82,0-3.31-1.49-3.31-3.3V10.17c0-0.62,0.5-1.11,1.11-1.11h59.82c0.61,0,1.1,0.49,1.1,1.11V55.49
			z" fill="#1d3016" class="color000000 svgShape"></path>
    <path fill="#61994d" d="M6.63,9.05c-0.61,0-1.11,0.49-1.11,1.11v9.16H0.98v-9.16c0-0.62,0.5-1.11,1.11-1.11H6.63z" class="color994d4d svgShape"></path>
    <path fill="#6daa57" d="M63.02,10.17v9.16H5.51v-9.16c0-0.62,0.5-1.11,1.11-1.11h3.51v2.59c0,1.39,1.11,2.5,2.5,2.5
			c0.27,0,0.49-0.22,0.49-0.49c0-0.27-0.23-0.49-0.49-0.49c-0.84,0-1.52-0.68-1.52-1.52V9.05h37.95v2.59c0,1.39,1.12,2.5,2.5,2.5
			c0.27,0,0.49-0.22,0.49-0.49c0-0.27-0.23-0.49-0.49-0.49c-0.84,0-1.52-0.68-1.52-1.52V9.05h11.86
			C62.52,9.05,63.02,9.55,63.02,10.17z" class="coloraa5757 svgShape"></path>
    <path fill="#e5f4df" d="M5.51,20.31v35.18c0,1.81,1.49,3.3,3.31,3.3h50.89c1.82,0,3.3-1.49,3.3-3.3V20.31H5.51z M48.37,41.2
			c-0.05,0.08-0.16,0.23-0.31,0.37l-4.46,4.47c-0.06,0.06-0.13,0.13-0.21,0.19v7.4c0,0.28-0.22,0.49-0.49,0.49H15.24
			c-0.28,0-0.49-0.22-0.49-0.49V25.98c0-0.28,0.22-0.49,0.49-0.49H42.9c0.28,0,0.49,0.22,0.49,0.49v8.95
			c1.54-0.73,3.43-0.43,4.67,0.82c0.21,0.21,0.38,0.42,0.53,0.66v0.01c0.12,0.17,0.21,0.33,0.29,0.51c0.04,0.09,0.08,0.18,0.12,0.28
			c0.18,0.46,0.27,0.96,0.27,1.46c0,0.24-0.02,0.46-0.06,0.68c-0.04,0.25-0.1,0.48-0.19,0.71c-0.03,0.09-0.06,0.18-0.11,0.27
			c-0.04,0.11-0.09,0.21-0.15,0.31c-0.04,0.09-0.1,0.17-0.15,0.25c-0.02,0.03-0.04,0.06-0.06,0.09
			C48.49,41.04,48.43,41.12,48.37,41.2z" class="colordff2f4 svgShape"></path>
    <path fill="#cee0c7" d="M8.82,58.79H4.29c-1.82,0-3.31-1.49-3.31-3.3V20.31h4.53v35.18C5.51,57.3,7,58.79,8.82,58.79z" class="colorc7dfe0 svgShape"></path>
    <path fill="#379913" d="M43.53,44.72l-0.63,0.63l-4.44-4.46c-0.08-0.09-0.17-0.18-0.26-0.3c-0.22-0.28-0.37-0.57-0.49-0.88
			c-0.01-0.03-0.02-0.06-0.03-0.09c-0.1-0.31-0.15-0.63-0.15-0.96c0-0.84,0.32-1.62,0.93-2.23c0.77-0.78,1.84-1.07,2.85-0.86
			c-0.58,0.12-1.13,0.4-1.59,0.86c-0.6,0.6-0.93,1.39-0.93,2.23c0,0.33,0.05,0.66,0.15,0.96c0.01,0.03,0.02,0.06,0.03,0.09
			c0.12,0.31,0.28,0.6,0.49,0.88c0.09,0.12,0.18,0.21,0.26,0.3L43.53,44.72z" class="color991313 svgShape"></path>
    <path fill="#3ead15" d="M48.28,38.66c0,0.7-0.24,1.37-0.72,1.99c-0.03,0.04-0.08,0.12-0.2,0.24l-3.83,3.83l-3.81-3.83
			c-0.08-0.09-0.17-0.18-0.26-0.3c-0.22-0.28-0.37-0.57-0.49-0.88c-0.01-0.03-0.02-0.06-0.03-0.09c-0.1-0.31-0.15-0.63-0.15-0.96
			c0-0.84,0.32-1.62,0.93-2.23c0.45-0.45,1-0.74,1.59-0.86c0.46,0.09,0.91,0.3,1.3,0.61c0.01,0,0.01,0.01,0.02,0.01
			c0.03,0.03,0.08,0.05,0.12,0.06c0.01,0,0.03,0,0.04,0.01c0.04,0.02,0.1,0.03,0.14,0.03c0.05,0,0.1-0.01,0.15-0.03
			c0.05-0.01,0.1-0.04,0.15-0.08c0.11-0.08,0.22-0.16,0.32-0.23c0.69-0.4,1.49-0.53,2.24-0.37c0.58,0.12,1.13,0.4,1.58,0.85
			C47.95,37.04,48.28,37.83,48.28,38.66z" class="colorad1515 svgShape"></path>
    <path fill="#aadd97" d="M42.41,46.23v6.91H29.57v-3.52c0.44,0.25,0.95,0.38,1.46,0.38c1.66,0,3-1.35,3-3c0-1.65-1.34-3-3-3
			c-0.51,0-1.01,0.14-1.46,0.38v-4.09h7.33c0.14,0.31,0.32,0.6,0.53,0.88c0.1,0.14,0.22,0.28,0.33,0.4l4.45,4.46
			C42.28,46.11,42.34,46.17,42.41,46.23z" class="colorddbd97 svgShape"></path>
    <path fill="#6daa57" d="M42.41,26.47v8.45c-1.54-0.73-3.4-0.43-4.65,0.83c-0.78,0.78-1.21,1.82-1.21,2.91
			c0,0.23,0.02,0.44,0.06,0.66h-7.04v-4.95c0-0.14-0.06-0.28-0.17-0.37c-0.2-0.18-0.51-0.16-0.69,0.05
			c-0.01,0.01-0.03,0.03-0.04,0.05c-0.37,0.39-0.9,0.62-1.46,0.62c-1.13,0-2.02-0.89-2.02-2.02c0-1.11,0.91-2.02,2.02-2.02
			c0.57,0,1.11,0.25,1.5,0.68c0.1,0.11,0.24,0.16,0.36,0.16c0.05,0,0.1-0.01,0.15-0.02c0.02-0.01,0.03-0.01,0.05-0.02
			c0.05-0.02,0.1-0.05,0.14-0.09c0.03-0.03,0.05-0.05,0.07-0.08c0.06-0.09,0.09-0.19,0.09-0.29v-4.55H42.41z" class="coloraa8557 svgShape"></path>
    <rect width="1.26" height="12.85" x="15.73" y="26.47" fill="#9cce89" class="colorcead89 svgShape"></rect>
    <path fill="#aadd97" d="M28.58,26.47v3.56c-0.24-0.13-0.49-0.22-0.75-0.28c-0.21-0.05-0.41-0.07-0.62-0.07c-1.65,0-3,1.35-3,3
			c0,1.65,1.35,3,3,3c0.21,0,0.42-0.02,0.62-0.07c0.27-0.05,0.51-0.15,0.75-0.27v3.96h-4.39c-0.06,0-0.11,0.01-0.16,0.03
			c-0.04,0.01-0.08,0.03-0.12,0.06c-0.01,0.01-0.02,0.01-0.03,0.02c-0.04,0.03-0.08,0.07-0.11,0.11c-0.02,0.03-0.04,0.07-0.05,0.12
			c-0.01,0.04-0.02,0.09-0.02,0.13c0,0.01-0.01,0.02-0.01,0.03c0,0.03,0,0.07,0.01,0.1s0.01,0.06,0.03,0.09
			c0.01,0.04,0.03,0.08,0.06,0.12c0.28,0.35,0.41,0.78,0.41,1.23c0,0.89-0.58,1.64-1.38,1.92c-0.2,0.06-0.41,0.1-0.64,0.1
			c-0.5,0-0.96-0.19-1.32-0.5v-0.01c-0.42-0.36-0.69-0.91-0.69-1.51c0-0.37,0.1-0.73,0.3-1.04c0.03-0.07,0.07-0.13,0.12-0.19
			c0.03-0.04,0.05-0.08,0.06-0.12c0.02-0.03,0.02-0.06,0.03-0.09s0.01-0.07,0.01-0.1c0-0.01-0.01-0.02-0.01-0.03
			c0-0.04,0-0.09-0.02-0.13c-0.01-0.05-0.02-0.09-0.05-0.12c-0.02-0.02-0.04-0.05-0.07-0.07c-0.01-0.02-0.03-0.03-0.04-0.04
			c-0.01-0.01-0.02-0.01-0.03-0.02c-0.04-0.03-0.08-0.05-0.12-0.06c-0.05-0.02-0.11-0.03-0.16-0.03h-3.21V26.47H28.58z" class="colorddbd97 svgShape"></path>
    <rect width="1.26" height="12.84" x="15.73" y="40.31" fill="#639b4e" class="color9b764e svgShape"></rect>
    <path fill="#6daa57" d="M33.04,47.01c0,0.89-0.58,1.64-1.38,1.91c-0.21,0.07-0.42,0.11-0.64,0.11c-0.41,0-0.84-0.14-1.18-0.38
			c-0.13-0.1-0.25-0.21-0.35-0.32c-0.01-0.01-0.02-0.03-0.03-0.04c-0.01-0.01-0.02-0.02-0.03-0.03c-0.03-0.02-0.05-0.04-0.08-0.06
			c-0.08-0.06-0.18-0.09-0.28-0.09c-0.05,0-0.1,0.01-0.15,0.03c-0.06,0.01-0.12,0.05-0.17,0.09c-0.04,0.03-0.07,0.07-0.09,0.1
			c-0.02,0.03-0.04,0.06-0.05,0.09c-0.03,0.06-0.04,0.13-0.04,0.19v4.55H16.99V40.31h2.39c-0.13,0.32-0.19,0.68-0.19,1.04
			c0,1.65,1.34,3,2.99,3c0.22,0,0.43-0.02,0.64-0.07c0.83-0.18,1.54-0.7,1.95-1.42c0.27-0.44,0.41-0.96,0.41-1.52
			c0-0.36-0.06-0.72-0.19-1.04h3.57v5.12c0,0.07,0.02,0.15,0.04,0.21c0.04,0.07,0.08,0.13,0.14,0.18c0.01,0.01,0.01,0.01,0.02,0.01
			c0.03,0.03,0.07,0.05,0.11,0.06c0.02,0.01,0.03,0.02,0.04,0.01c0.05,0.02,0.1,0.03,0.15,0.03c0.06,0.01,0.13-0.01,0.2-0.04
			c0.03,0,0.05-0.02,0.08-0.04c0.03-0.01,0.06-0.03,0.08-0.06c0,0,0.01-0.01,0.01-0.02c0.01,0,0.01,0,0.02-0.01
			c0.12-0.14,0.25-0.27,0.38-0.36c0.34-0.26,0.76-0.39,1.18-0.39c0.22,0,0.43,0.04,0.63,0.1C32.46,45.36,33.04,46.11,33.04,47.01z" class="coloraa8557 svgShape"></path>
    <path d="M53.89 6.06v2.49c0 .28-.23.49-.49.49-.28 0-.49-.22-.49-.49V6.06c0-.46-.38-.85-.86-.85H50.9c-.47 0-.86.38-.86.85v5.58c0 .84.68 1.52 1.52 1.52.27 0 .49.23.49.49 0 .28-.23.49-.49.49-1.38 0-2.5-1.11-2.5-2.5V6.06c0-1.01.83-1.83 1.84-1.83h1.14C53.06 4.23 53.89 5.05 53.89 6.06zM14.95 6.06v2.49c0 .28-.22.49-.49.49-.27 0-.49-.22-.49-.49V6.06c0-.46-.38-.85-.86-.85h-1.14c-.47 0-.85.38-.85.85v5.58c0 .84.68 1.52 1.52 1.52.27 0 .49.23.49.49 0 .28-.23.49-.49.49-1.39 0-2.5-1.11-2.5-2.5V6.06c0-1.01.82-1.83 1.83-1.83h1.14C14.12 4.23 14.95 5.05 14.95 6.06z" fill="#1d3016" class="color000000 svgShape"></path>
    <g fill="#1d3016" class="color000000 svgShape">
    <path d="M64,19.82c0,0.28-0.22,0.49-0.49,0.49H0.49C0.23,20.31,0,20.09,0,19.82c0-0.27,0.23-0.49,0.49-0.49h63.02
			C63.78,19.32,64,19.55,64,19.82z" fill="#1d3016" class="color000000 svgShape"></path>
  </g>
    <g fill="#1d3016" class="color000000 svgShape">
    <path d="M43.39,25.98v9.81c0,0.04,0,0.06-0.01,0.09v0.01c-0.01,0.07-0.04,0.13-0.07,0.18v0.01c-0.1,0.12-0.24,0.21-0.41,0.21
			c-0.04,0-0.08-0.01-0.12-0.01c-0.01-0.01-0.03-0.01-0.04-0.01c-0.04-0.01-0.08-0.03-0.12-0.06c-0.01,0-0.01-0.01-0.02-0.01
			c-0.03-0.02-0.06-0.05-0.08-0.08c-0.01-0.02-0.02-0.03-0.03-0.05c-0.02-0.03-0.04-0.06-0.05-0.1c-0.03-0.06-0.04-0.12-0.04-0.18
			v-9.31H15.73v26.67h26.67v-7.16c0-0.02,0-0.03,0.01-0.04c0-0.02,0.01-0.04,0.01-0.05c0.02-0.06,0.04-0.12,0.08-0.17
			c0.02-0.04,0.05-0.08,0.09-0.11c0.03-0.03,0.06-0.05,0.09-0.07c0.07-0.04,0.14-0.06,0.22-0.06c0.08,0,0.16,0.02,0.23,0.06
			c0.02,0.01,0.05,0.03,0.07,0.05c0.07,0.05,0.13,0.12,0.16,0.19c0.03,0.06,0.04,0.13,0.04,0.2v7.65c0,0.28-0.22,0.49-0.49,0.49
			H15.24c-0.28,0-0.49-0.22-0.49-0.49V25.98c0-0.28,0.22-0.49,0.49-0.49H42.9C43.18,25.49,43.39,25.7,43.39,25.98z" fill="#1d3016" class="color000000 svgShape"></path>
  </g>
    <g fill="#1d3016" class="color000000 svgShape">
    <path d="M29.57,48.6v5.04c0,0.28-0.22,0.49-0.49,0.49c-0.27,0-0.49-0.22-0.49-0.49V48.6c0-0.06,0.01-0.13,0.04-0.19
			c0.01-0.03,0.03-0.06,0.05-0.09c0.02-0.03,0.05-0.07,0.09-0.1c0.05-0.04,0.11-0.08,0.17-0.09c0.05-0.02,0.1-0.03,0.15-0.03
			c0.1,0,0.2,0.03,0.28,0.09c0.03,0.02,0.05,0.04,0.08,0.06c0.01,0.01,0.02,0.02,0.03,0.03c0.01,0.01,0.02,0.03,0.03,0.04
			C29.54,48.4,29.57,48.5,29.57,48.6z" fill="#1d3016" class="color000000 svgShape"></path>
  </g>
    <g fill="#1d3016" class="color000000 svgShape">
    <path d="M29.57,25.98v5.04c0,0.1-0.03,0.2-0.09,0.29c-0.02,0.03-0.04,0.05-0.07,0.08c-0.04,0.04-0.09,0.07-0.14,0.09
			c-0.02,0.01-0.03,0.01-0.05,0.02c-0.05,0.01-0.1,0.02-0.15,0.02c-0.13,0-0.27-0.05-0.36-0.16c-0.08-0.09-0.13-0.21-0.13-0.33
			v-5.04c0-0.28,0.23-0.49,0.49-0.49C29.35,25.49,29.57,25.7,29.57,25.98z" fill="#1d3016" class="color000000 svgShape"></path>
  </g>
    <g fill="#1d3016" class="color000000 svgShape">
    <path d="M29.57,34.37v11.06c0,0.13-0.05,0.25-0.13,0.33c-0.02,0.04-0.06,0.06-0.09,0.08c-0.03,0.01-0.05,0.03-0.08,0.04
			c-0.07,0.03-0.14,0.05-0.2,0.04c-0.05,0-0.1-0.01-0.15-0.03c-0.01,0.01-0.02,0-0.04-0.01c-0.04-0.01-0.08-0.03-0.11-0.06
			c-0.01,0-0.01,0-0.02-0.01c-0.06-0.05-0.1-0.11-0.14-0.18c-0.02-0.06-0.04-0.14-0.04-0.21V34.37c0-0.1,0.03-0.2,0.09-0.28
			c0.01-0.02,0.03-0.04,0.04-0.05c0.18-0.21,0.49-0.23,0.69-0.05C29.51,34.09,29.57,34.23,29.57,34.37z" fill="#1d3016" class="color000000 svgShape"></path>
  </g>
    <g fill="#1d3016" class="color000000 svgShape">
    <path d="M37.72,39.81c0,0.28-0.23,0.49-0.49,0.49H24.19c-0.16,0-0.3-0.07-0.39-0.19c-0.03-0.04-0.05-0.08-0.06-0.12
			c-0.02-0.03-0.02-0.06-0.03-0.09s-0.01-0.07-0.01-0.1c0-0.01,0.01-0.02,0.01-0.03c0-0.04,0.01-0.09,0.02-0.13
			c0.01-0.05,0.03-0.09,0.05-0.12c0.03-0.04,0.07-0.08,0.11-0.11c0.01-0.01,0.02-0.01,0.03-0.02c0.04-0.03,0.08-0.05,0.12-0.06
			c0.05-0.02,0.1-0.03,0.16-0.03h13.04c0.2,0,0.37,0.13,0.45,0.31c0.01,0.03,0.02,0.06,0.03,0.09
			C37.72,39.74,37.72,39.78,37.72,39.81z" fill="#1d3016" class="color000000 svgShape"></path>
  </g>
    <g fill="#1d3016" class="color000000 svgShape">
    <path d="M20.7,39.81c0,0.03,0,0.07-0.01,0.1s-0.01,0.06-0.03,0.09c-0.01,0.04-0.03,0.08-0.06,0.12c-0.09,0.11-0.23,0.19-0.39,0.19
			h-4.96c-0.28,0-0.49-0.22-0.49-0.49c0-0.27,0.22-0.49,0.49-0.49h4.96c0.05,0,0.11,0.01,0.16,0.03c0.04,0.01,0.08,0.03,0.12,0.06
			c0.01,0.01,0.02,0.01,0.03,0.02c0.01,0.01,0.03,0.02,0.04,0.04c0.03,0.02,0.05,0.05,0.07,0.07c0.03,0.03,0.04,0.07,0.05,0.12
			c0.02,0.04,0.02,0.09,0.02,0.13C20.69,39.79,20.7,39.8,20.7,39.81z" fill="#1d3016" class="color000000 svgShape"></path>
  </g>
    <g fill="#1d3016" class="color000000 svgShape">
    <path d="M25.2,41.35c0,1.65-1.34,3-3,3c-1.65,0-2.99-1.35-2.99-3c0-0.36,0.06-0.72,0.19-1.04c0.1-0.29,0.25-0.54,0.43-0.79
			c0.09-0.13,0.24-0.2,0.38-0.2c0.05,0,0.11,0.01,0.16,0.03c0.04,0.01,0.08,0.03,0.12,0.06c0.01,0.01,0.02,0.01,0.03,0.02
			c0.01,0.01,0.03,0.02,0.04,0.04c0.03,0.02,0.05,0.05,0.07,0.07c0.03,0.03,0.04,0.07,0.05,0.12c0.02,0.04,0.02,0.09,0.02,0.13
			c0,0.01,0.01,0.02,0.01,0.03c0,0.03,0,0.07-0.01,0.1s-0.01,0.06-0.03,0.09c-0.01,0.04-0.03,0.08-0.06,0.12
			c-0.28,0.35-0.41,0.78-0.41,1.23c0,1.11,0.91,2.02,2.01,2.02c1.11,0,2.02-0.91,2.02-2.02c0-0.45-0.14-0.88-0.41-1.23
			c-0.03-0.04-0.05-0.08-0.06-0.12c-0.02-0.03-0.02-0.06-0.03-0.09s-0.01-0.07-0.01-0.1c0-0.01,0.01-0.02,0.01-0.03
			c0-0.04,0.01-0.09,0.02-0.13c0.01-0.05,0.03-0.09,0.05-0.12c0.03-0.04,0.07-0.08,0.11-0.11c0.01-0.01,0.02-0.01,0.03-0.02
			c0.04-0.03,0.08-0.05,0.12-0.06c0.05-0.02,0.1-0.03,0.16-0.03c0.14,0,0.29,0.07,0.38,0.2c0.19,0.25,0.33,0.5,0.43,0.79
			C25.14,40.63,25.2,40.98,25.2,41.35z" fill="#1d3016" class="color000000 svgShape"></path>
  </g>
    <g fill="#1d3016" class="color000000 svgShape">
    <path d="M34.03,47.01c0,1.65-1.34,3-3,3c-0.51,0-1.01-0.14-1.46-0.38c-0.32-0.19-0.62-0.42-0.87-0.72
			c-0.08-0.09-0.12-0.21-0.12-0.32c0-0.06,0.01-0.13,0.04-0.19c0.01-0.03,0.03-0.06,0.05-0.09c0.02-0.03,0.05-0.07,0.09-0.1
			c0.05-0.04,0.11-0.08,0.17-0.09c0.05-0.02,0.1-0.03,0.15-0.03c0.1,0,0.2,0.03,0.28,0.09c0.03,0.02,0.05,0.04,0.08,0.06
			c0.01,0.01,0.02,0.02,0.03,0.03c0.01,0.01,0.02,0.03,0.03,0.04c0.39,0.45,0.96,0.71,1.54,0.71c1.11,0,2.02-0.91,2.02-2.02
			c0-1.11-0.91-2.02-2.02-2.02c-0.59,0-1.17,0.28-1.57,0.76c-0.01,0.01-0.01,0.01-0.02,0.01c-0.02,0.04-0.06,0.06-0.09,0.08
			c-0.03,0.01-0.05,0.03-0.08,0.04c-0.07,0.03-0.14,0.05-0.2,0.04c-0.05,0-0.1-0.01-0.15-0.03c-0.01,0.01-0.02,0-0.04-0.01
			c-0.04-0.01-0.08-0.03-0.11-0.06c-0.01,0-0.01,0-0.02-0.01c-0.06-0.05-0.1-0.11-0.14-0.18c-0.02-0.06-0.04-0.14-0.04-0.21
			c0-0.11,0.04-0.23,0.12-0.32c0.25-0.3,0.54-0.53,0.87-0.72c0.44-0.25,0.95-0.38,1.46-0.38C32.69,44.01,34.03,45.36,34.03,47.01z" fill="#1d3016" class="color000000 svgShape"></path>
  </g>
    <g fill="#1d3016" class="color000000 svgShape">
    <path d="M29.4,33.99c0.11,0.1,0.17,0.24,0.17,0.37c0,0.12-0.04,0.23-0.12,0.32c-0.25,0.28-0.54,0.51-0.87,0.67
			c-0.41,0.22-0.89,0.33-1.37,0.33c-1.65,0-3-1.35-3-3c0-1.65,1.35-3,3-3c0.48,0,0.95,0.12,1.37,0.34c0.32,0.16,0.61,0.38,0.87,0.66
			c0.08,0.09,0.12,0.21,0.12,0.32c0,0.1-0.03,0.2-0.09,0.29c-0.02,0.03-0.04,0.05-0.07,0.08c-0.04,0.04-0.09,0.07-0.14,0.09
			c-0.02,0.01-0.03,0.01-0.05,0.02c-0.05,0.01-0.1,0.02-0.15,0.02c-0.13,0-0.27-0.05-0.36-0.16c-0.38-0.43-0.93-0.68-1.5-0.68
			c-1.11,0-2.02,0.91-2.02,2.02c0,1.13,0.89,2.02,2.02,2.02c0.56,0,1.08-0.23,1.46-0.62c0.01-0.02,0.03-0.04,0.04-0.05
			C28.89,33.84,29.2,33.82,29.4,33.99z" fill="#1d3016" class="color000000 svgShape"></path>
  </g>
    <g fill="#1d3016" class="color000000 svgShape">
    <path d="M49.26,38.66c0,0.24-0.02,0.46-0.06,0.68c-0.04,0.25-0.1,0.48-0.19,0.71c-0.03,0.09-0.07,0.18-0.11,0.27
			c-0.04,0.11-0.09,0.21-0.15,0.31c-0.05,0.09-0.1,0.17-0.15,0.25c-0.02,0.03-0.04,0.06-0.06,0.09c-0.06,0.09-0.12,0.17-0.18,0.25
			c-0.05,0.08-0.16,0.23-0.31,0.37l-4.46,4.47c-0.06,0.06-0.13,0.13-0.21,0.19c-0.05,0.05-0.11,0.09-0.16,0.14
			c-0.05,0.04-0.1,0.07-0.16,0.09c-0.05,0.02-0.11,0.03-0.17,0.03c-0.06,0-0.11-0.01-0.17-0.03c-0.04-0.01-0.08-0.03-0.12-0.06
			c0,0-0.01,0-0.01-0.01c-0.03-0.02-0.05-0.04-0.08-0.07c-0.09-0.11-0.13-0.25-0.12-0.37c0-0.02,0.01-0.04,0.01-0.05
			c0.02-0.06,0.04-0.12,0.08-0.17c0.02-0.04,0.05-0.08,0.09-0.11c0.03-0.03,0.06-0.05,0.09-0.07c0.08-0.08,0.16-0.15,0.22-0.21
			l0.63-0.63l3.83-3.83c0.12-0.12,0.17-0.2,0.2-0.24c0.48-0.62,0.72-1.29,0.72-1.99c0-0.83-0.32-1.62-0.92-2.23
			c-0.44-0.44-0.99-0.73-1.58-0.85c-0.76-0.16-1.56-0.03-2.24,0.37c-0.11,0.07-0.22,0.15-0.32,0.23c-0.05,0.04-0.1,0.07-0.15,0.08
			c-0.05,0.02-0.1,0.03-0.15,0.03c-0.04,0-0.1-0.01-0.14-0.03c-0.01-0.01-0.03-0.01-0.04-0.01c-0.04-0.01-0.08-0.03-0.12-0.06
			c-0.01,0-0.01-0.01-0.02-0.01c-0.03-0.02-0.06-0.05-0.08-0.08c-0.01-0.02-0.02-0.03-0.03-0.05c-0.02-0.03-0.04-0.06-0.05-0.1
			c-0.05-0.14-0.04-0.28,0.03-0.4c0.03-0.06,0.08-0.11,0.13-0.15c0.1-0.08,0.2-0.15,0.3-0.22c0.16-0.1,0.32-0.19,0.49-0.27
			c1.54-0.73,3.43-0.43,4.67,0.82c0.21,0.21,0.38,0.42,0.53,0.66v0.01c0.12,0.17,0.21,0.33,0.29,0.51c0.04,0.09,0.08,0.18,0.12,0.28
			C49.17,37.67,49.26,38.16,49.26,38.66z" fill="#1d3016" class="color000000 svgShape"></path>
  </g>
    <g fill="#1d3016" class="color000000 svgShape">
    <path d="M43.39,46.08c-0.01,0.07-0.04,0.14-0.08,0.21c-0.02,0.04-0.05,0.07-0.08,0.09c-0.05,0.04-0.1,0.07-0.16,0.09
			c-0.05,0.02-0.11,0.03-0.17,0.03c-0.06,0-0.11-0.01-0.17-0.03c-0.04-0.01-0.08-0.03-0.12-0.06c0,0-0.01,0-0.01-0.01
			c-0.07-0.05-0.14-0.1-0.21-0.16c-0.07-0.06-0.13-0.12-0.2-0.19l-4.45-4.46c-0.12-0.13-0.24-0.27-0.33-0.4
			c-0.22-0.28-0.39-0.57-0.53-0.88c-0.14-0.32-0.24-0.64-0.29-0.98c-0.04-0.22-0.06-0.43-0.06-0.66c0-1.09,0.43-2.14,1.21-2.91
			c1.25-1.26,3.11-1.56,4.65-0.83c0.17,0.08,0.33,0.17,0.49,0.28c0.11,0.07,0.22,0.15,0.31,0.23c0.1,0.07,0.16,0.17,0.18,0.28v0.09
			c0,0.04,0,0.06-0.01,0.09v0.01c0,0.07-0.02,0.13-0.07,0.18v0.01c0,0.02-0.01,0.03-0.02,0.04c-0.02,0.03-0.05,0.06-0.08,0.08
			c-0.05,0.04-0.1,0.07-0.15,0.08c-0.05,0.02-0.1,0.03-0.15,0.03c-0.04,0-0.1-0.01-0.14-0.03c-0.01-0.01-0.03-0.01-0.04-0.01
			c-0.04-0.01-0.08-0.03-0.12-0.06c-0.01,0-0.01-0.01-0.02-0.01c-0.39-0.32-0.84-0.52-1.3-0.61c-1-0.22-2.08,0.08-2.85,0.86
			c-0.6,0.6-0.93,1.39-0.93,2.23c0,0.33,0.05,0.66,0.15,0.96c0.01,0.03,0.02,0.06,0.03,0.09c0.12,0.31,0.28,0.6,0.49,0.88
			c0.09,0.12,0.18,0.21,0.26,0.3l4.44,4.46c0.08,0.08,0.15,0.14,0.23,0.21c0.02,0.01,0.05,0.03,0.07,0.05
			c0.07,0.05,0.13,0.12,0.16,0.19C43.4,45.88,43.41,45.98,43.39,46.08z" fill="#1d3016" class="color000000 svgShape"></path>
  </g>
</svg>