<svg xmlns="http://www.w3.org/2000/svg" viewBox="0 0 64 64" id="Chat">
    <linearGradient id="a" x1="33.078" x2="33.078" y1="12.872" y2="61.607" gradientUnits="userSpaceOnUse">
        <stop offset="0" stop-color="#ffffff" stop-opacity=".25" class="stopColorffffff svgShape"></stop>
        <stop offset="1" stop-color="#cffebe" class="stopColorfed3be svgShape"></stop>
    </linearGradient>
    <path fill="url(#a)" d="M45.8 17.4c-1.5-1.5-3-3-4.9-3.9-2.3-1-4.9-.8-7.2-.1-2.4.7-4.5 2-6.7 3.2-6.1 3.5-12.2 7.1-18.4 10.6C7.3 28 5.9 28.8 5 30c-1.8 2.3-1.7 5.6-.5 8.2 1.2 2.6 3.4 4.6 5.7 6.3 2.3 1.7 4.7 3.3 6.8 5.3 1.9 1.9 3.4 4.2 5.3 6.1 5.7 5.7 15.2 7.3 22.4 3.7 5.3-2.6 9-7.5 12.6-12.2 2.6-3.4 5.3-7.2 5.3-11.5 0-4.2-2.7-7.8-6.5-9.4-4.1-1.5-7.2-5.9-10.3-9.1z"></path>
    <path fill="none" stroke="#000000" stroke-linecap="round" stroke-linejoin="round" stroke-miterlimit="10" stroke-width="1.418" d="M37.2 28.3v6.1c0 2-1.7 3.6-3.7 3.6H20.3l-6.4 4.6-.2-4.6h0c-2 0-3.7-1.7-3.7-3.7V22.7c0-2.1 1.6-3.7 3.7-3.7h14.5" class="colorStroke000000 svgStroke"></path>
    <path fill="none" stroke="#000000" stroke-linecap="round" stroke-linejoin="round" stroke-miterlimit="10" stroke-width="1.418" d="m51.6 28.3-.2 4.6-6.4-4.6H31.8c-2 0-3.7-1.7-3.7-3.7V13c0-2.1 1.6-3.7 3.7-3.7h19.9c2 0 3.7 1.7 3.7 3.7v11.6c0 2.1-1.7 3.7-3.8 3.7h0zm-14.4 6.2h7.2c1.7 0 3 1.4 3 3.1v9.6c0 1.7-1.4 3.1-3 3.1h0l-.2 3.7-5.3-3.8H28c-1.7 0-3-1.4-3-3.1V38" class="colorStroke000000 svgStroke"></path>
    <path fill="#5eff23" stroke="#3bdb00" stroke-linecap="round" stroke-linejoin="round" stroke-miterlimit="10" stroke-width="1.21" d="M37.2 34.5h7.2c1.7 0 3 1.4 3 3.1v9.6c0 1.7-1.4 3.1-3 3.1h0l-.2 3.7-5.3-3.8H28c-1.7 0-3-1.4-3-3.1V38l12.2-3.5z" class="colorff9d23 svgShape colorStroke0000db svgStroke"></path>
    <path fill="none" stroke="#ffffff" stroke-linecap="round" stroke-linejoin="round" stroke-miterlimit="10" stroke-width="1.21" d="M31.7 41.1h9M31.7 45h9" class="colorStrokeffffff svgStroke"></path>
    <path fill="#affa94" stroke="#3bdb00" stroke-linecap="round" stroke-linejoin="round" stroke-miterlimit="10" stroke-width="1.21" d="M37.2 28.3v6.1c0 2-1.7 3.6-3.7 3.6H20.3l-6.4 4.6-.2-4.6h0c-2 0-3.7-1.7-3.7-3.7V22.7c0-2.1 1.6-3.7 3.7-3.7h14.5l9 9.3z" class="color9495fa svgShape colorStroke0000db svgStroke"></path>
    <path fill="#8df866" stroke="#3bdb00" stroke-linecap="round" stroke-linejoin="round" stroke-miterlimit="10" stroke-width="1.21" d="m51.6 28.3-.2 4.6-6.4-4.6H31.8c-2 0-3.7-1.7-3.7-3.7V13c0-2.1 1.6-3.7 3.7-3.7h19.9c2 0 3.7 1.7 3.7 3.7v11.6c0 2.1-1.7 3.7-3.8 3.7h0z" class="colorf86c66 svgShape colorStroke0000db svgStroke"></path>
    <g fill="none" stroke="#ffffff" stroke-linecap="round" stroke-linejoin="round" stroke-miterlimit="10" stroke-width="1.21" class="colorStrokeffffff svgStroke">
        <path d="M36 16.7h11.5M36 21h11.5" fill="#1d3016" class="color000000 svgShape"></path>
    </g>
    <path fill="none" stroke="#5eff23" stroke-linecap="round" stroke-linejoin="round" stroke-miterlimit="10" stroke-width="1.501" d="m58 4.5-2.1-2.1-1.8 1.8" class="colorStrokeff9d23 svgStroke"></path>
    <path fill="none" stroke="#3bdb00" stroke-linecap="round" stroke-linejoin="round" stroke-miterlimit="10" stroke-width="1.372" d="m3.6 28.2-1.9-1.9L0 28" class="colorStroke0000db svgStroke"></path>
    <path fill="none" stroke="#affa94" stroke-linecap="round" stroke-linejoin="round" stroke-miterlimit="10" stroke-width="1.501" d="m61.2 12.7 2.8 2.7" class="colorStroke9495fa svgStroke"></path>
    <path fill="none" stroke="#7bff4b" stroke-linecap="round" stroke-linejoin="round" stroke-miterlimit="10" stroke-width="1.372" d="m4.6 12.6 3 2.9M59.7 51.8l3 3" class="colorStrokeff4b4d svgStroke"></path>
    <path fill="none" stroke="#5eff23" stroke-linecap="round" stroke-linejoin="round" stroke-miterlimit="10" stroke-width="1.372" d="m6.1 50.3 3 3" class="colorStrokeff9d23 svgStroke"></path>
</svg>