<!--<svg xmlns="http://www.w3.org/2000/svg" viewBox="0 0 1792 1792" id="Home">-->
<!--    <path d="M1472 992v480q0 26-19 45t-45 19h-384v-384H768v384H384q-26 0-45-19t-19-45V992q0-1 .5-3t.5-3l575-474 575 474q1 2 1 6zm223-69-62 74q-8 9-21 11h-3q-13 0-21-7L896 424l-692 577q-12 8-24 7-13-2-21-11l-62-74q-8-10-7-23.5t11-21.5l719-599q32-26 76-26t76 26l244 204V288q0-14 9-23t23-9h192q14 0 23 9t9 23v408l219 182q10 8 11 21.5t-7 23.5z" fill="#1d3016" class="color000000 svgShape"></path>-->
<!--</svg>-->
<svg xmlns="http://www.w3.org/2000/svg" fill="none" viewBox="0 0 24 24" id="Home">
    <path fill="#1d3016" d="M20 12H4V20C4 21.1046 4.89543 22 6 22H9.5V16C9.5 15.4477 9.94772 15 10.5 15H13.5C14.0523 15 14.5 15.4477 14.5 16V22H18C19.1046 22 20 21.1046 20 20V12Z" class="color7997c2 svgShape"></path>
    <path fill="#c5e5b9" d="M11.2929 2.70711C11.6834 2.31658 12.3166 2.31658 12.7071 2.70711L21.3172 11.3172C21.5691 11.5691 21.3907 12 21.0343 12H2.96568C2.60932 12 2.43086 11.5691 2.68284 11.3172L11.2929 2.70711Z" class="colorb9cbe5 svgShape"></path>
</svg>